<svg width="91" height="35" viewBox="0 0 91 35" fill="none" xmlns="http://www.w3.org/2000/svg">
<path fill-rule="evenodd" clip-rule="evenodd" d="M65 14.4492C65.5523 14.4492 66 14.8969 66 15.4492V27.9992H84V15.4492C84 14.8969 84.4477 14.4492 85 14.4492C85.5523 14.4492 86 14.8969 86 15.4492V27.9992C86 28.5296 85.7893 29.0384 85.4142 29.4134C85.0391 29.7885 84.5304 29.9992 84 29.9992H66C65.4696 29.9992 64.9609 29.7885 64.5858 29.4134C64.2107 29.0384 64 28.5297 64 27.9992V15.4492C64 14.8969 64.4477 14.4492 65 14.4492Z" fill="#A259FF"/>
<path fill-rule="evenodd" clip-rule="evenodd" d="M62 7C62 6.44772 62.4477 6 63 6H87C87.5523 6 88 6.44772 88 7C88 7.55228 87.5523 8 87 8H63C62.4477 8 62 7.55228 62 7Z" fill="#A259FF"/>
<path fill-rule="evenodd" clip-rule="evenodd" d="M63 9C63.5523 9 64 9.44772 64 10V12C64 12.7956 64.3161 13.5587 64.8787 14.1213C65.4413 14.6839 66.2044 15 67 15C67.7956 15 68.5587 14.6839 69.1213 14.1213C69.6839 13.5587 70 12.7956 70 12V10C70 9.44772 70.4477 9 71 9C71.5523 9 72 9.44772 72 10V12C72 13.3261 71.4732 14.5979 70.5355 15.5355C69.5979 16.4732 68.3261 17 67 17C65.6739 17 64.4021 16.4732 63.4645 15.5355C62.5268 14.5979 62 13.3261 62 12V10C62 9.44772 62.4477 9 63 9Z" fill="#A259FF"/>
<path fill-rule="evenodd" clip-rule="evenodd" d="M71 9C71.5523 9 72 9.44772 72 10V12C72 12.7956 72.3161 13.5587 72.8787 14.1213C73.4413 14.6839 74.2044 15 75 15C75.7956 15 76.5587 14.6839 77.1213 14.1213C77.6839 13.5587 78 12.7956 78 12V10C78 9.44772 78.4477 9 79 9C79.5523 9 80 9.44772 80 10V12C80 13.3261 79.4732 14.5979 78.5355 15.5355C77.5979 16.4732 76.3261 17 75 17C73.6739 17 72.4021 16.4732 71.4645 15.5355C70.5268 14.5979 70 13.3261 70 12V10C70 9.44772 70.4477 9 71 9Z" fill="#A259FF"/>
<path fill-rule="evenodd" clip-rule="evenodd" d="M79 9C79.5523 9 80 9.44772 80 10V12C80 12.7956 80.3161 13.5587 80.8787 14.1213C81.4413 14.6839 82.2044 15 83 15C83.7956 15 84.5587 14.6839 85.1213 14.1213C85.6839 13.5587 86 12.7956 86 12V10C86 9.44772 86.4477 9 87 9C87.5523 9 88 9.44772 88 10V12C88 13.3261 87.4732 14.5979 86.5355 15.5355C85.5979 16.4732 84.3261 17 83 17C81.6739 17 80.4021 16.4732 79.4645 15.5355C78.5268 14.5979 78 13.3261 78 12V10C78 9.44772 78.4477 9 79 9Z" fill="#A259FF"/>
<path d="M9.8168 26.462L10.3888 23.382C11.8115 23.382 13.0508 23.3453 14.1068 23.272C15.1628 23.184 16.0355 23.0593 16.7248 22.898C17.4288 22.722 17.9495 22.4947 18.2868 22.216C18.6388 21.9373 18.8148 21.6 18.8148 21.204C18.8148 20.676 18.7268 20.0453 18.5508 19.312C18.3748 18.564 18.1475 17.8087 17.8688 17.046L20.7508 16.21C20.9415 16.7087 21.1248 17.2587 21.3008 17.86C21.4768 18.4467 21.6161 19.0407 21.7188 19.642C21.8361 20.2287 21.8948 20.7787 21.8948 21.292C21.8948 22.2013 21.6968 22.986 21.3008 23.646C20.9048 24.2913 20.2448 24.8267 19.3208 25.252C18.4115 25.6627 17.1795 25.9633 15.6248 26.154C14.0701 26.3593 12.1341 26.462 9.8168 26.462ZM9.7948 26.462C8.2108 26.462 6.8688 26.3373 5.7688 26.088C4.68346 25.8533 3.79613 25.516 3.1068 25.076C2.43213 24.6213 1.9408 24.0933 1.6328 23.492C1.3248 22.8907 1.1708 22.2307 1.1708 21.512C1.1708 21.0427 1.20746 20.5733 1.2808 20.104C1.3688 19.62 1.47146 19.1507 1.5888 18.696C1.7208 18.2413 1.83813 17.8307 1.9408 17.464L4.6908 18.102C4.63213 18.366 4.56613 18.652 4.4928 18.96C4.41946 19.268 4.3608 19.5687 4.3168 19.862C4.2728 20.1407 4.2508 20.3973 4.2508 20.632C4.2508 21.1747 4.44146 21.6587 4.8228 22.084C5.2188 22.4947 5.86413 22.8173 6.7588 23.052C7.65346 23.272 8.85613 23.382 10.3668 23.382L10.8068 25.758L9.7948 26.462ZM11.4888 31.61C11.0635 31.61 10.6968 31.4633 10.3888 31.17C10.0955 30.8767 9.9488 30.5173 9.9488 30.092C9.9488 29.6667 10.0955 29.2927 10.3888 28.97C10.6968 28.662 11.0635 28.508 11.4888 28.508C11.9141 28.508 12.2735 28.662 12.5668 28.97C12.8748 29.2927 13.0288 29.6667 13.0288 30.092C13.0288 30.5173 12.8748 30.8767 12.5668 31.17C12.2735 31.4633 11.9141 31.61 11.4888 31.61ZM29.9779 26.11C28.6139 26.11 27.5579 25.9707 26.8099 25.692C26.0766 25.4133 25.5632 24.9807 25.2699 24.394C24.9766 23.7927 24.8079 23.0373 24.7639 22.128L24.3019 9.896H27.3819L27.8439 20.654C27.8732 21.3287 27.9466 21.8347 28.0639 22.172C28.1812 22.5093 28.4012 22.7367 28.7239 22.854C29.0612 22.9713 29.5526 23.03 30.1979 23.03C30.7552 23.03 31.1512 23.1767 31.3859 23.47C31.6352 23.7487 31.7599 24.1007 31.7599 24.526C31.7599 24.9807 31.6059 25.362 31.2979 25.67C30.9899 25.9633 30.5499 26.11 29.9779 26.11ZM30.0078 26.11L30.2278 23.03C30.7558 23.03 31.2105 22.9787 31.5918 22.876C31.9731 22.7733 32.2958 22.568 32.5598 22.26C32.8238 21.9373 33.0438 21.468 33.2198 20.852C33.4105 20.236 33.5791 19.4147 33.7258 18.388L36.6078 18.872C36.5785 19.092 36.5345 19.3487 36.4758 19.642C36.4318 19.9353 36.3878 20.236 36.3438 20.544C36.3145 20.8373 36.2998 21.116 36.2998 21.38C36.2998 21.644 36.3511 21.8787 36.4538 22.084C36.5565 22.2893 36.7178 22.4653 36.9378 22.612C37.1725 22.744 37.4731 22.8467 37.8398 22.92C38.2211 22.9933 38.6831 23.03 39.2258 23.03C39.7831 23.03 40.1791 23.1767 40.4138 23.47C40.6485 23.7487 40.7658 24.1007 40.7658 24.526C40.7658 24.9807 40.6118 25.362 40.3038 25.67C40.0105 25.9633 39.5778 26.11 39.0058 26.11C38.3458 26.11 37.7445 26.0587 37.2018 25.956C36.6738 25.8533 36.2118 25.6847 35.8158 25.45C35.4345 25.2007 35.1191 24.878 34.8698 24.482C34.6351 24.0713 34.4885 23.5727 34.4298 22.986H35.4858C35.2218 23.69 34.8845 24.2547 34.4738 24.68C34.0778 25.0907 33.6305 25.3987 33.1318 25.604C32.6331 25.8093 32.1125 25.9413 31.5698 26C31.0418 26.0733 30.5211 26.11 30.0078 26.11ZM37.0698 16.408C36.6445 16.408 36.2778 16.2613 35.9698 15.968C35.6765 15.66 35.5298 15.3007 35.5298 14.89C35.5298 14.4647 35.6765 14.098 35.9698 13.79C36.2778 13.482 36.6445 13.328 37.0698 13.328C37.4805 13.328 37.8325 13.482 38.1258 13.79C38.4191 14.098 38.5658 14.4647 38.5658 14.89C38.5658 15.3007 38.4191 15.66 38.1258 15.968C37.8325 16.2613 37.4805 16.408 37.0698 16.408ZM33.2638 16.386C32.8385 16.386 32.4718 16.2393 32.1638 15.946C31.8705 15.638 31.7238 15.2787 31.7238 14.868C31.7238 14.4427 31.8705 14.076 32.1638 13.768C32.4718 13.46 32.8385 13.306 33.2638 13.306C33.6745 13.306 34.0265 13.46 34.3198 13.768C34.6131 14.076 34.7598 14.4427 34.7598 14.868C34.7598 15.2787 34.6131 15.638 34.3198 15.946C34.0265 16.2393 33.6745 16.386 33.2638 16.386ZM39.0098 26.11L39.2298 23.03H42.3758C42.6838 23.03 42.9551 23.0153 43.1898 22.986C43.4244 22.942 43.6151 22.876 43.7618 22.788C43.9231 22.7 44.0404 22.59 44.1138 22.458C44.1871 22.326 44.2238 22.172 44.2238 21.996C44.2238 21.82 44.1284 21.5413 43.9378 21.16C43.7618 20.764 43.3731 20.2873 42.7718 19.73C42.4491 19.4367 42.0971 19.1287 41.7158 18.806C41.3491 18.4687 40.9971 18.1533 40.6598 17.86C40.3224 17.552 40.0438 17.2807 39.8238 17.046C39.6038 16.8113 39.4938 16.6427 39.4938 16.54C39.4938 16.32 39.5084 16.078 39.5378 15.814C39.5671 15.55 39.6111 15.308 39.6698 15.088C39.7431 14.868 39.8384 14.7067 39.9558 14.604C40.2051 14.3693 40.5718 14.098 41.0558 13.79C41.5544 13.4673 42.1484 13.1227 42.8378 12.756C43.5271 12.3747 44.2971 11.9787 45.1478 11.568C46.0131 11.1427 46.9371 10.7173 47.9198 10.292L49.1738 12.976C48.3671 13.328 47.6044 13.6727 46.8858 14.01C46.1671 14.3327 45.4924 14.6553 44.8618 14.978C44.2458 15.286 43.6738 15.594 43.1458 15.902C42.6324 16.1953 42.1778 16.4887 41.7818 16.782L42.0678 15.154C43.3144 16.1073 44.3044 16.9653 45.0378 17.728C45.7858 18.4907 46.3431 19.1727 46.7098 19.774C47.0764 20.3607 47.3184 20.8887 47.4358 21.358C47.5531 21.8127 47.6118 22.216 47.6118 22.568C47.6118 22.92 47.5238 23.3013 47.3478 23.712C47.1864 24.108 46.8858 24.4893 46.4458 24.856C46.0204 25.2227 45.4191 25.5233 44.6418 25.758C43.8644 25.9927 42.8671 26.11 41.6498 26.11H39.0098Z" fill="white"/>
</svg>
